HIERARCHY
ROOT Hips
{
	OFFSET -3.958830 18.904000 13.208200
	CHANNELS 6 Xposition Yposition Zposition Zrotation Yrotation Xrotation 
	JOINT LHipJoint
	{
		OFFSET 0.000000 0.000000 0.000000
		CHANNELS 3 Zrotation Yrotation Xrotation
		JOINT LeftUpLeg
		{
			OFFSET 1.800000 -1.400000 0.085000
			CHANNELS 3 Zrotation Yrotation Xrotation
			JOINT LeftLeg
			{
				OFFSET 2.215000 -6.000000 0.000000
				CHANNELS 3 Zrotation Yrotation Xrotation
				JOINT LeftFoot
				{
					OFFSET 2.500000 -6.900000 0.000000
					CHANNELS 3 Zrotation Yrotation Xrotation
					JOINT LeftToeBase
					{
						OFFSET 0.200000 -0.500000 1.950000
						CHANNELS 3 Zrotation Yrotation Xrotation
						End Site
						{
							OFFSET 0.000000 0.000000 0.000000
						}
					}
				}
			}
		}
	}
	JOINT RHipJoint
	{
		OFFSET 0.000000 0.000000 0.000000
		CHANNELS 3 Zrotation Yrotation Xrotation
		JOINT RightUpLeg
		{
			OFFSET -1.800000 -1.400000 0.085000
			CHANNELS 3 Zrotation Yrotation Xrotation
			JOINT RightLeg
			{
				OFFSET -2.215000 -6.000000 0.000000
				CHANNELS 3 Zrotation Yrotation Xrotation
				JOINT RightFoot
				{
					OFFSET -2.500000 -6.900000 0.000000
					CHANNELS 3 Zrotation Yrotation Xrotation
					JOINT RightToeBase
					{
						OFFSET -0.200000 -0.500000 1.950000
						CHANNELS 3 Zrotation Yrotation Xrotation
						End Site
						{
							OFFSET 0.000000 0.000000 0.000000
						}
					}
				}
			}
		}
	}
	JOINT LowerBack
	{
		OFFSET 0.000000 0.000000 0.000000
		CHANNELS 3 Zrotation Yrotation Xrotation
		JOINT Spine
		{
			OFFSET -0.087000 1.940000 -0.288900
			CHANNELS 3 Zrotation Yrotation Xrotation
			JOINT Spine1
			{
				OFFSET 0.000000 1.950000 0.060000
				CHANNELS 3 Zrotation Yrotation Xrotation
				JOINT Neck
				{
					OFFSET 0.000000 0.000000 0.000000
					CHANNELS 3 Zrotation Yrotation Xrotation
					JOINT Neck1
					{
						OFFSET 0.000000 1.600000 0.340000
						CHANNELS 3 Zrotation Yrotation Xrotation
						JOINT Head
						{
							OFFSET 0.000000 1.667000 -0.240000
							CHANNELS 3 Zrotation Yrotation Xrotation
							End Site
							{
								OFFSET 0.000000 0.000000 0.000000
							}
						}
					}
				}
				JOINT LeftShoulder
				{
					OFFSET 0.000000 0.000000 0.000000
					CHANNELS 3 Zrotation Yrotation Xrotation
					JOINT LeftArm
					{
						OFFSET 2.700000 1.550000 -0.730000
						CHANNELS 3 Zrotation Yrotation Xrotation
						JOINT LeftForeArm
						{
							OFFSET 5.450000 0.000000 0.000000
							CHANNELS 3 Zrotation Yrotation Xrotation
							JOINT LeftHand
							{
								OFFSET 3.450000 0.000000 0.000000
								CHANNELS 3 Zrotation Yrotation Xrotation
								JOINT LeftHandIndex1
								{
									OFFSET 0.750000 0.000000 0.000000
									CHANNELS 3 Zrotation Yrotation Xrotation
									End Site
									{
										OFFSET 0.000000 0.000000 0.000000
									}
								}
							}
						}
					}
				}
				JOINT RightShoulder
				{
					OFFSET 0.000000 0.000000 0.000000
					CHANNELS 3 Zrotation Yrotation Xrotation
					JOINT RightArm
					{
						OFFSET -2.700000 1.550000 -0.730000
						CHANNELS 3 Zrotation Yrotation Xrotation
						JOINT RightForeArm
						{
							OFFSET -5.450000 0.000000 0.000000
							CHANNELS 3 Zrotation Yrotation Xrotation
							JOINT RightHand
							{
								OFFSET -3.450000 0.000000 0.000000
								CHANNELS 3 Zrotation Yrotation Xrotation
								JOINT RightHandIndex1
								{
									OFFSET -0.750000 0.000000 0.000000
									CHANNELS 3 Zrotation Yrotation Xrotation
									End Site
									{
										OFFSET 0.000000 0.000000 0.000000
									}
								}
							}
						}
					}
				}
			}
		}
	}
}
MOTION
Frames: 11
Frame Time: 0.016667
0.597830 16.908660 -1.585820 -2.272876 -4.210909 0.566557 -15.696437 13.821655 3.303054 -3.797437 -1.138977 -6.427359 -2.958145 4.063926 9.218877 -0.850835 4.015136 3.600272 0.742170 -0.013220 0.691700 17.591733 -10.463399 2.594459 -23.749469 -0.091870 -11.137774 3.323997 -4.403905 3.708827 -0.627666 -3.686999 3.179306 -0.008330 0.215700 0.485920 -1.824041 -3.468407 -7.831252 -3.409805 3.587020 14.240041 6.743479 2.591132 2.890248 3.050502 2.015494 -11.270563 0.703320 -0.719901 38.864066 -6.603840 2.131810 -21.409680 -22.254495 -10.862139 4.517905 -9.278710 2.961586 -0.345522 7.622667 -8.228356 -1.698222 -3.784005 2.686027 1.193040 0.051980 0.108520 0.310590 17.607944 11.611817 8.058773 7.514638 1.172362 -2.529241 -9.875386 -6.501530 0.760918 2.191361 -1.241276 -0.310000 0.268980 -0.066090 -0.537230 
0.591980 16.907860 -1.583280 -2.280909 -4.220605 0.676529 -15.691882 13.808979 3.293237 -3.767440 -1.152892 -6.520731 -2.925553 4.056551 9.236277 -0.860895 4.015421 3.614313 0.732770 -0.020440 0.683610 17.598011 -10.468787 2.597894 -23.755860 -0.088739 -11.233168 3.331947 -4.393461 3.692897 -0.619464 -3.688139 3.188145 -0.003790 0.235200 0.470810 -1.839125 -3.432466 -7.818125 -3.401367 3.613706 14.050965 6.736369 2.616122 2.945669 3.022760 2.010857 -11.268293 0.730410 -0.738283 38.620485 -6.628410 2.102690 -20.997970 -22.098759 -10.841356 4.510182 -8.927182 2.956070 -0.315371 8.032490 -8.013537 -1.700872 -3.794263 2.664201 1.189800 0.061570 0.096600 0.319320 17.499445 11.578974 8.078730 7.242375 1.022662 -2.574582 -10.232441 -6.955102 0.808786 2.195375 -1.244317 -0.329560 0.291440 -0.066610 -0.535190 
0.578560 16.908130 -1.580580 -2.055371 -4.143567 0.807488 -15.693187 13.787368 3.289802 -3.911588 -1.183708 -6.632773 -2.885769 4.047443 9.298476 -0.857526 3.996463 3.619911 0.724800 -0.021130 0.670090 17.600905 -10.468539 2.598646 -23.939446 -0.107009 -11.348668 3.267360 -4.384270 3.684570 -0.610093 -3.695871 3.187851 -0.002330 0.240370 0.460740 -1.842474 -3.400134 -7.802463 -3.853407 3.703237 13.802410 6.851230 2.623126 2.924125 2.923485 1.971175 -11.331557 0.668637 -0.709337 38.552156 -6.266450 2.002710 -20.523470 -21.711154 -10.816144 4.552911 -8.332334 3.039920 -0.280542 8.664336 -7.672751 -1.692043 -3.803545 2.662966 1.176350 0.065380 0.086720 0.319100 17.322797 11.573933 8.131974 6.828819 0.779773 -2.643267 -10.789328 -7.848588 0.930520 2.214947 -1.257439 -0.330560 0.292640 -0.064450 -0.530020 
0.566960 16.908090 -1.576970 -1.992340 -3.950034 1.075116 -15.688002 13.754238 3.267546 -3.955142 -1.248737 -6.894183 -2.813834 4.023714 9.430572 -0.862773 3.980902 3.635875 0.731730 -0.007400 0.668610 17.615502 -10.464396 2.599505 -23.969743 -0.107065 -11.468357 3.285363 -4.362402 3.606991 -0.606559 -3.713486 3.179651 0.011450 0.260280 0.461000 -1.874876 -3.349038 -7.754138 -3.983158 3.692251 13.369838 6.879882 2.555388 3.236859 2.809316 1.928615 -11.183155 0.706101 -0.828058 37.491843 -6.150120 1.816300 -20.231690 -21.381547 -10.684952 4.478823 -7.446812 2.863298 -0.204772 9.394551 -7.126432 -1.689735 -3.821721 2.668476 1.157910 0.079320 0.076810 0.332230 17.187223 11.412849 8.061831 5.962245 0.631539 -2.701435 -11.312661 -8.900379 1.027971 2.235632 -1.287801 -0.333190 0.300280 -0.074300 -0.518130 
0.555690 16.911660 -1.574060 -2.032229 -3.819665 1.229680 -15.682869 13.750603 3.256247 -3.858229 -1.276955 -7.027153 -2.771748 4.005747 9.502677 -0.865106 3.977428 3.635853 0.740430 0.000860 0.659780 17.620979 -10.472975 2.598990 -23.851882 -0.092881 -11.519962 3.262483 -4.346282 3.597649 -0.607517 -3.718237 3.175313 0.018400 0.266810 0.476350 -1.891645 -3.325223 -7.735983 -3.959899 3.732613 13.196662 6.879126 2.584388 3.260396 2.748844 1.901199 -11.158237 0.690039 -0.947785 37.005177 -5.921520 1.566290 -20.039690 -21.231800 -10.678447 4.440840 -6.281533 2.893064 -0.122272 10.005662 -6.613800 -1.683301 -3.834144 2.690142 1.151000 0.086150 0.076070 0.344610 17.141718 11.389216 8.106749 4.743352 0.171807 -2.757399 -11.557940 -10.098117 1.164144 2.253141 -1.313228 -0.325510 0.289430 -0.077580 -0.510080 
0.545500 16.919290 -1.572270 -2.040012 -3.654475 1.279616 -15.684207 13.777128 3.260969 -3.831548 -1.291918 -7.110235 -2.567072 3.970438 9.582330 -0.866596 3.964847 3.635868 0.727640 -0.016230 0.646090 17.612225 -10.487778 2.595793 -23.716505 -0.088017 -11.525430 3.211331 -4.346167 3.699306 -0.600491 -3.702969 3.180841 0.004810 0.269420 0.478570 -1.878241 -3.348176 -7.748710 -4.031343 3.809102 13.266496 6.950854 2.653519 2.969558 2.726984 1.882796 -11.293730 0.577971 -1.076775 37.221240 -5.649920 1.291030 -19.756240 -21.200192 -10.798608 4.466203 -5.064285 3.129465 -0.056126 10.461915 -6.169428 -1.665587 -3.846309 2.693069 1.150150 0.085390 0.069050 0.336940 17.171461 11.493530 8.299659 3.343131 -0.730971 -2.789652 -11.531336 -10.963205 1.271009 2.266105 -1.308003 -0.322040 0.282340 -0.063020 -0.509290 
0.532990 16.927260 -1.569670 -2.019196 -3.465421 1.287724 -15.687426 13.812645 3.269864 -3.754999 -1.306014 -7.165430 -2.444436 3.950440 9.692315 -0.849160 3.946345 3.616845 0.723590 -0.027450 0.633550 17.598299 -10.496051 2.602261 -23.561734 -0.073572 -11.416779 3.137597 -4.338918 3.666612 -0.605175 -3.687491 3.175991 -0.017150 0.245820 0.503580 -1.854636 -3.396778 -7.780218 -4.201257 3.862309 13.408338 7.068508 2.673965 2.589981 2.685936 1.809091 -11.549985 0.290600 -1.084671 37.927335 -5.028880 1.028680 -19.756060 -21.023024 -10.959204 4.586263 -3.947650 3.482185 0.018866 10.692755 -5.574718 -1.627488 -3.847510 2.727015 1.153200 0.070550 0.080980 0.323390 17.118856 11.654230 8.549760 2.052001 -1.759784 -2.788157 -11.361269 -11.499641 1.356365 2.282594 -1.305727 -0.291000 0.239540 -0.049790 -0.506800 
0.524240 16.935480 -1.566770 -2.044309 -3.324018 1.249587 -15.689664 13.855863 3.276184 -3.637953 -1.314164 -7.235193 -2.329738 3.954165 9.882870 -0.843333 3.940777 3.610431 0.708890 -0.047060 0.624510 17.584207 -10.507145 2.606766 -23.355589 -0.062537 -11.280942 3.016928 -4.318251 3.627088 -0.604384 -3.660299 3.189140 -0.036890 0.236510 0.502060 -1.831669 -3.451383 -7.811501 -4.217928 3.919891 13.659167 7.143927 2.740441 2.191925 2.703298 1.718634 -11.758950 -0.020566 -1.093159 38.581024 -4.813080 0.884570 -19.796320 -20.869563 -11.038645 4.628745 -2.813938 3.789791 0.099492 10.589516 -5.244728 -1.586523 -3.846764 2.720025 1.162030 0.058870 0.083790 0.311970 16.969809 11.772173 8.785968 0.860599 -2.770347 -2.769914 -11.184944 -11.769091 1.394637 2.288480 -1.284325 -0.286480 0.232250 -0.036910 -0.509430 
0.516020 16.942190 -1.565640 -1.998752 -3.148677 1.206293 -15.698051 13.892327 3.279344 -3.592567 -1.351502 -7.364698 -2.247481 3.967890 10.182953 -0.832161 3.933437 3.602837 0.711560 -0.048420 0.631430 17.568936 -10.508059 2.603497 -23.212261 -0.061641 -11.134274 2.852425 -4.287942 3.583542 -0.610648 -3.638571 3.194113 -0.045470 0.216130 0.506390 -1.799789 -3.516078 -7.823274 -4.404898 4.018721 13.895323 7.316604 2.804997 1.913819 2.718366 1.718284 -11.845473 -0.121879 -1.204786 38.857733 -4.798010 0.799180 -20.066820 -20.832288 -11.094564 4.608848 -1.499682 4.006070 0.187013 10.238072 -5.061023 -1.543042 -3.835710 2.728873 1.166720 0.044040 0.095410 0.306850 16.935076 11.810617 8.943980 -0.454075 -3.707173 -2.705834 -10.942283 -11.822090 1.371204 2.292732 -1.275985 -0.274230 0.217260 -0.039620 -0.512010 
0.510110 16.947150 -1.564770 -1.910762 -3.020895 1.180741 -15.709084 13.916487 3.279614 -3.620293 -1.401241 -7.499686 -2.202525 3.985278 10.509972 -0.832466 3.940965 3.602019 0.726190 -0.041870 0.648460 17.556498 -10.497722 2.596761 -23.156360 -0.063069 -11.033942 2.761552 -4.271127 3.554712 -0.619629 -3.634769 3.192089 -0.044620 0.209490 0.512920 -1.768544 -3.580330 -7.819571 -4.593131 4.107712 14.025139 7.499342 2.854808 1.796762 2.722956 1.692141 -11.786176 -0.212062 -1.351012 38.700390 -4.959710 0.698440 -20.316780 -20.946430 -11.106769 4.522548 -0.138566 4.135931 0.288520 9.859910 -4.884064 -1.517154 -3.823875 2.736695 1.175770 0.037230 0.102950 0.312650 17.063043 11.834775 8.999541 -2.004693 -4.481768 -2.670056 -10.841295 -12.098566 1.344053 2.293908 -1.280784 -0.271270 0.211590 -0.051840 -0.513690 
0.504600 16.949370 -1.562730 -1.852257 -2.942559 1.190215 -15.709917 13.931513 3.285997 -3.614459 -1.443688 -7.623185 -2.259840 4.011001 10.745877 -0.832661 3.945139 3.582989 0.729790 -0.044020 0.643090 17.550794 -10.501373 2.596350 -23.114779 -0.055250 -11.013741 2.726872 -4.274998 3.597457 -0.621602 -3.634236 3.180939 -0.050500 0.195740 0.529290 -1.759880 -3.606207 -7.831745 -4.618716 4.139121 14.080329 7.521194 2.900124 1.612943 2.666318 1.608167 -11.791167 -0.449925 -1.399785 38.849465 -4.735120 0.498590 -20.387170 -21.050273 -11.211043 4.496615 1.227497 4.379996 0.397912 9.406410 -4.701451 -1.496331 -3.817050 2.766880 1.180000 0.029450 0.107520 0.307050 17.305116 11.956122 9.059904 -3.165217 -5.149549 -2.721137 -11.354662 -12.549436 1.440385 2.298713 -1.296348 -0.256770 0.184620 -0.044990 -0.513980 
